<svg width="448" height="141" viewBox="0 0 448 141" fill="none" xmlns="http://www.w3.org/2000/svg">
<path d="M36.072 100.488C41.904 100.488 46.944 98.652 51.192 94.98C55.512 91.236 58.788 86.232 61.02 79.968C63.252 73.632 64.368 66.612 64.368 58.908C64.368 51.132 63.252 44.112 61.02 37.848C58.788 31.512 55.512 26.508 51.192 22.836C46.944 19.164 41.904 17.328 36.072 17.328H24.732V100.488H36.072ZM3.24 102C3.528 101.568 4.14 101.1 5.076 100.596C6.444 99.732 7.488 98.832 8.208 97.896C9 96.96 9.396 95.592 9.396 93.792V24.024C9.396 22.224 9 20.856 8.208 19.92C7.416 18.912 6.336 17.976 4.968 17.112C4.104 16.608 3.528 16.176 3.24 15.816H37.584C45.792 15.816 53.208 17.796 59.832 21.756C66.528 25.716 71.748 31.008 75.492 37.632C79.308 44.184 81.216 51.276 81.216 58.908C81.216 66.468 79.308 73.56 75.492 80.184C71.676 86.808 66.42 92.1 59.724 96.06C53.1 100.02 45.72 102 37.584 102H3.24ZM156.441 96.276C156.441 97.572 156.693 98.544 157.197 99.192C157.773 99.84 158.421 100.416 159.141 100.92C159.933 101.424 160.401 101.784 160.545 102H138.945C139.089 101.784 139.557 101.424 140.349 100.92C141.141 100.416 141.789 99.84 142.293 99.192C142.797 98.472 143.049 97.5 143.049 96.276V92.712C145.065 91.128 147.081 89.328 149.097 87.312C151.185 85.224 153.633 82.632 156.441 79.536V96.276ZM85.0534 75C85.0534 69.816 86.0974 65.028 88.1854 60.636C90.3454 56.244 93.2974 52.752 97.0414 50.16C100.785 47.568 104.997 46.272 109.677 46.272C113.781 46.272 117.561 47.388 121.017 49.62C124.473 51.852 127.209 54.912 129.225 58.8C131.241 62.688 132.249 67.08 132.249 71.976H98.9854C98.9134 72.84 98.8774 74.208 98.8774 76.08C98.8774 82.92 100.029 88.824 102.333 93.792C104.637 98.688 108.705 101.136 114.537 101.136C120.657 101.136 125.841 100.092 130.089 98.004C134.409 95.844 138.729 92.856 143.049 89.04V22.296C143.049 21 142.761 20.028 142.185 19.38C141.681 18.732 141.033 18.156 140.241 17.652C139.521 17.148 139.089 16.788 138.945 16.572L156.441 12.468V75.648L176.529 53.724C177.969 52.068 178.689 50.808 178.689 49.944C178.689 49.512 178.545 49.116 178.257 48.756C177.969 48.396 177.789 48.144 177.717 48H187.221C186.933 48.36 186.105 48.828 184.737 49.404C181.641 50.628 179.337 52.068 177.825 53.724L171.561 60.528L192.945 96.276C193.593 97.284 194.349 98.112 195.213 98.76C196.149 99.408 197.229 100.056 198.453 100.704C199.533 101.208 200.217 101.64 200.505 102H176.961C177.105 101.712 177.429 101.316 177.933 100.812C178.437 100.308 178.689 99.696 178.689 98.976C178.689 98.328 178.365 97.428 177.717 96.276L162.705 70.14L156.441 77.052C148.953 85.62 141.789 92.208 134.949 96.816C128.109 101.424 120.693 103.728 112.701 103.728C107.517 103.728 102.801 102.468 98.5534 99.948C94.3774 97.356 91.0654 93.864 88.6174 89.472C86.2414 85.08 85.0534 80.256 85.0534 75ZM119.505 70.896C119.433 62.76 118.749 56.784 117.453 52.968C116.157 49.152 113.565 47.244 109.677 47.244C106.149 47.244 103.521 49.44 101.793 53.832C100.137 58.152 99.2014 63.84 98.9854 70.896H119.505ZM254.346 96.276C254.346 97.572 254.598 98.544 255.102 99.192C255.678 99.84 256.326 100.416 257.046 100.92C257.838 101.424 258.306 101.784 258.45 102H236.85C236.994 101.784 237.462 101.424 238.254 100.92C239.046 100.416 239.694 99.84 240.198 99.192C240.702 98.472 240.954 97.5 240.954 96.276V63.66C240.954 59.988 239.838 57.036 237.606 54.804C235.446 52.572 232.782 51.456 229.614 51.456C225.438 51.6 221.73 53.544 218.49 57.288V96.276C218.49 97.572 218.742 98.544 219.246 99.192C219.822 99.84 220.47 100.416 221.19 100.92C221.982 101.424 222.45 101.784 222.594 102H200.994C201.138 101.784 201.606 101.424 202.398 100.92C203.19 100.416 203.838 99.84 204.342 99.192C204.846 98.472 205.098 97.5 205.098 96.276V22.296C205.098 21 204.81 20.028 204.234 19.38C203.73 18.732 203.082 18.156 202.29 17.652C201.57 17.148 201.138 16.788 200.994 16.572L218.49 12.468V55.668C221.082 52.5 223.962 50.16 227.13 48.648C230.37 47.064 233.646 46.272 236.958 46.272C240.054 46.272 242.934 47.028 245.598 48.54C248.262 49.98 250.386 52.032 251.97 54.696C253.554 57.288 254.346 60.276 254.346 63.66V96.276ZM291.496 102.756C296.752 102.756 300.532 100.2 302.836 95.088C305.212 89.904 306.4 83.208 306.4 75C306.4 66.864 305.212 60.204 302.836 55.02C300.532 49.836 296.752 47.244 291.496 47.244C286.24 47.244 282.424 49.836 280.048 55.02C277.744 60.204 276.592 66.864 276.592 75C276.592 83.208 277.744 89.904 280.048 95.088C282.424 100.2 286.24 102.756 291.496 102.756ZM262.768 75C262.768 69.816 264.064 65.028 266.656 60.636C269.248 56.244 272.74 52.752 277.132 50.16C281.524 47.568 286.312 46.272 291.496 46.272C296.68 46.272 301.468 47.568 305.86 50.16C310.252 52.752 313.744 56.244 316.336 60.636C318.928 65.028 320.224 69.816 320.224 75C320.224 80.184 318.928 84.972 316.336 89.364C313.744 93.756 310.252 97.248 305.86 99.84C301.468 102.432 296.68 103.728 291.496 103.728C286.312 103.728 281.524 102.432 277.132 99.84C272.74 97.248 269.248 93.756 266.656 89.364C264.064 84.972 262.768 80.184 262.768 75ZM353.934 102.756C359.19 102.756 362.97 100.2 365.274 95.088C367.65 89.904 368.838 83.208 368.838 75C368.838 66.864 367.65 60.204 365.274 55.02C362.97 49.836 359.19 47.244 353.934 47.244C348.678 47.244 344.862 49.836 342.486 55.02C340.182 60.204 339.03 66.864 339.03 75C339.03 83.208 340.182 89.904 342.486 95.088C344.862 100.2 348.678 102.756 353.934 102.756ZM325.206 75C325.206 69.816 326.502 65.028 329.094 60.636C331.686 56.244 335.178 52.752 339.57 50.16C343.962 47.568 348.75 46.272 353.934 46.272C359.118 46.272 363.906 47.568 368.298 50.16C372.69 52.752 376.182 56.244 378.774 60.636C381.366 65.028 382.662 69.816 382.662 75C382.662 80.184 381.366 84.972 378.774 89.364C376.182 93.756 372.69 97.248 368.298 99.84C363.906 102.432 359.118 103.728 353.934 103.728C348.75 103.728 343.962 102.432 339.57 99.84C335.178 97.248 331.686 93.756 329.094 89.364C326.502 84.972 325.206 80.184 325.206 75ZM416.371 102.756C421.627 102.756 425.407 100.2 427.711 95.088C430.087 89.904 431.275 83.208 431.275 75C431.275 66.864 430.087 60.204 427.711 55.02C425.407 49.836 421.627 47.244 416.371 47.244C411.115 47.244 407.299 49.836 404.923 55.02C402.619 60.204 401.467 66.864 401.467 75C401.467 83.208 402.619 89.904 404.923 95.088C407.299 100.2 411.115 102.756 416.371 102.756ZM387.643 75C387.643 69.816 388.939 65.028 391.531 60.636C394.123 56.244 397.615 52.752 402.007 50.16C406.399 47.568 411.187 46.272 416.371 46.272C421.555 46.272 426.343 47.568 430.735 50.16C435.127 52.752 438.619 56.244 441.211 60.636C443.803 65.028 445.099 69.816 445.099 75C445.099 80.184 443.803 84.972 441.211 89.364C438.619 93.756 435.127 97.248 430.735 99.84C426.343 102.432 421.555 103.728 416.371 103.728C411.187 103.728 406.399 102.432 402.007 99.84C397.615 97.248 394.123 93.756 391.531 89.364C388.939 84.972 387.643 80.184 387.643 75Z" fill="#151515"/>
<path d="M129.439 122.078C129.393 122.136 129.3 122.206 129.16 122.287C128.939 122.427 128.765 122.578 128.637 122.741C128.509 122.892 128.445 123.113 128.445 123.404V131.255C128.445 132.36 128.259 133.29 127.886 134.046C127.514 134.79 127.002 135.349 126.351 135.721C125.7 136.093 124.961 136.279 124.135 136.279C122.996 136.279 122.013 136.157 121.187 135.913C120.361 135.669 119.681 135.18 119.146 134.447C118.611 133.715 118.343 132.65 118.343 131.255V123.404C118.343 123.113 118.279 122.892 118.151 122.741C118.024 122.578 117.849 122.427 117.628 122.287C117.488 122.206 117.395 122.136 117.349 122.078H121.815C121.769 122.136 121.676 122.206 121.536 122.287C121.315 122.427 121.141 122.578 121.013 122.741C120.885 122.892 120.821 123.113 120.821 123.404V131.255C120.821 132.743 121.071 133.912 121.571 134.761C122.071 135.61 122.926 136.035 124.135 136.035C124.857 136.035 125.52 135.878 126.124 135.564C126.741 135.25 127.241 134.738 127.625 134.029C128.009 133.307 128.2 132.383 128.2 131.255V123.404C128.2 123.113 128.136 122.892 128.009 122.741C127.881 122.578 127.706 122.427 127.485 122.287C127.346 122.206 127.253 122.136 127.206 122.078H129.439ZM138.766 135.075C138.766 135.285 138.807 135.442 138.889 135.546C138.982 135.651 139.086 135.744 139.203 135.826C139.33 135.907 139.406 135.965 139.429 136H135.94C135.963 135.965 136.039 135.907 136.167 135.826C136.295 135.744 136.4 135.651 136.481 135.546C136.562 135.43 136.603 135.273 136.603 135.075V129.807C136.603 129.213 136.423 128.737 136.062 128.376C135.713 128.015 135.283 127.835 134.771 127.835C134.097 127.858 133.498 128.172 132.974 128.777V135.075C132.974 135.285 133.015 135.442 133.096 135.546C133.189 135.651 133.294 135.744 133.41 135.826C133.538 135.907 133.614 135.965 133.637 136H130.148C130.171 135.965 130.247 135.907 130.375 135.826C130.503 135.744 130.607 135.651 130.689 135.546C130.77 135.43 130.811 135.273 130.811 135.075V128.865C130.811 128.655 130.764 128.498 130.671 128.393C130.59 128.289 130.485 128.196 130.357 128.114C130.241 128.033 130.171 127.975 130.148 127.94L132.974 127.277V128.516C133.393 128.004 133.858 127.626 134.37 127.382C134.893 127.126 135.423 126.998 135.958 126.998C136.458 126.998 136.923 127.12 137.353 127.364C137.784 127.597 138.127 127.928 138.383 128.359C138.638 128.777 138.766 129.26 138.766 129.807V135.075ZM143.163 135.075C143.163 135.285 143.203 135.442 143.285 135.546C143.378 135.651 143.482 135.744 143.599 135.826C143.727 135.907 143.802 135.965 143.826 136H140.336C140.36 135.965 140.435 135.907 140.563 135.826C140.691 135.744 140.796 135.651 140.877 135.546C140.959 135.43 140.999 135.273 140.999 135.075V128.865C140.999 128.655 140.953 128.498 140.86 128.393C140.778 128.289 140.674 128.196 140.546 128.114C140.429 128.033 140.36 127.975 140.336 127.94L143.163 127.277V135.075ZM140.755 125.166C140.755 124.805 140.883 124.497 141.139 124.241C141.406 123.974 141.72 123.84 142.081 123.84C142.441 123.84 142.75 123.974 143.006 124.241C143.273 124.497 143.407 124.805 143.407 125.166C143.407 125.526 143.279 125.841 143.023 126.108C142.767 126.364 142.453 126.492 142.081 126.492C141.72 126.492 141.406 126.364 141.139 126.108C140.883 125.841 140.755 125.526 140.755 125.166ZM148.41 135.302C148.677 135.442 148.945 135.512 149.212 135.512C149.538 135.512 149.864 135.418 150.189 135.232C150.515 135.035 150.829 134.738 151.131 134.343V128.376C150.713 127.562 150.102 127.155 149.3 127.155C148.45 127.155 147.834 127.574 147.45 128.411C147.078 129.237 146.892 130.313 146.892 131.638C146.892 132.627 147.008 133.418 147.241 134.011C147.473 134.593 147.863 135.023 148.41 135.302ZM144.659 131.638C144.659 130.801 144.868 130.028 145.287 129.318C145.706 128.609 146.27 128.045 146.979 127.626C147.689 127.207 148.462 126.998 149.3 126.998C150.253 126.998 151.12 127.259 151.899 127.783L153.295 127.155V139.507C153.295 139.716 153.335 139.873 153.417 139.978C153.51 140.082 153.615 140.175 153.731 140.257C153.859 140.338 153.934 140.396 153.958 140.431H150.468C150.492 140.396 150.567 140.338 150.695 140.257C150.823 140.175 150.928 140.077 151.009 139.96C151.091 139.856 151.131 139.704 151.131 139.507V134.587C150.701 135.192 150.276 135.628 149.858 135.895C149.439 136.151 148.956 136.279 148.41 136.279C147.758 136.279 147.142 136.07 146.56 135.651C145.991 135.232 145.531 134.668 145.182 133.959C144.833 133.238 144.659 132.464 144.659 131.638ZM161.338 134.761C160.931 135.273 160.472 135.657 159.96 135.913C159.448 136.157 158.931 136.279 158.407 136.279C157.884 136.279 157.401 136.163 156.959 135.93C156.529 135.698 156.18 135.366 155.913 134.936C155.657 134.505 155.529 134.017 155.529 133.47V128.708C155.529 128.498 155.482 128.341 155.389 128.236C155.308 128.12 155.203 128.021 155.075 127.94C154.959 127.858 154.889 127.8 154.866 127.765L157.692 127.277V133.802C157.692 134.279 157.861 134.674 158.198 134.988C158.535 135.302 158.948 135.459 159.437 135.459C160.146 135.459 160.78 135.139 161.338 134.5V128.708C161.338 128.498 161.292 128.341 161.199 128.236C161.117 128.12 161.013 128.021 160.885 127.94C160.768 127.858 160.699 127.8 160.675 127.765L163.502 127.277V134.535C163.502 134.732 163.542 134.889 163.624 135.006C163.717 135.11 163.821 135.203 163.938 135.285C164.066 135.366 164.141 135.424 164.165 135.459L161.338 136.122V134.761ZM168.979 127.155C168.409 127.155 167.985 127.51 167.705 128.219C167.438 128.917 167.287 129.842 167.252 130.993H170.567C170.555 129.679 170.445 128.713 170.235 128.097C170.026 127.469 169.607 127.155 168.979 127.155ZM165.001 131.638C165.001 130.801 165.17 130.028 165.507 129.318C165.856 128.609 166.333 128.045 166.938 127.626C167.543 127.207 168.223 126.998 168.979 126.998C169.642 126.998 170.253 127.178 170.811 127.539C171.369 127.899 171.811 128.393 172.137 129.022C172.462 129.65 172.625 130.359 172.625 131.15H167.252L167.234 131.638C167.234 132.499 167.357 133.325 167.601 134.116C167.857 134.907 168.293 135.436 168.909 135.703C169.212 135.831 169.526 135.895 169.851 135.895C170.247 135.895 170.625 135.802 170.985 135.616C171.346 135.43 171.73 135.174 172.137 134.849C171.834 135.291 171.456 135.639 171.003 135.895C170.549 136.151 170.037 136.279 169.468 136.279C168.63 136.279 167.868 136.076 167.182 135.669C166.508 135.25 165.972 134.686 165.577 133.976C165.193 133.267 165.001 132.488 165.001 131.638ZM178.542 121.799V136.279H178.21V121.799H178.542ZM196.38 125.218C195.938 124.474 195.578 123.927 195.298 123.578C195.031 123.229 194.653 122.933 194.164 122.689C193.676 122.444 193.036 122.322 192.245 122.322H191.408V134.674C191.408 134.965 191.466 135.186 191.582 135.337C191.71 135.488 191.885 135.634 192.106 135.773C192.257 135.855 192.356 135.93 192.402 136H187.936C187.983 135.93 188.082 135.855 188.233 135.773C188.454 135.634 188.622 135.488 188.739 135.337C188.867 135.186 188.931 134.965 188.931 134.674V122.322H188.093C187.302 122.322 186.657 122.444 186.157 122.689C185.668 122.933 185.284 123.235 185.005 123.596C184.738 123.945 184.389 124.486 183.958 125.218L184.621 122.078H195.717L196.38 125.218ZM197.375 128.533C197.782 128.021 198.207 127.637 198.649 127.382C199.091 127.126 199.515 126.998 199.922 126.998C200.271 126.998 200.585 127.085 200.864 127.259C201.143 127.434 201.364 127.678 201.527 127.992L200.201 128.83C200.085 128.527 199.911 128.283 199.678 128.097C199.457 127.911 199.207 127.818 198.928 127.818C198.416 127.818 197.898 128.138 197.375 128.777V135.075C197.375 135.285 197.416 135.442 197.497 135.546C197.59 135.651 197.695 135.744 197.811 135.826C197.939 135.907 198.015 135.965 198.038 136H194.549C194.572 135.965 194.648 135.907 194.776 135.826C194.904 135.744 195.008 135.651 195.09 135.546C195.171 135.43 195.212 135.273 195.212 135.075V128.865C195.212 128.655 195.165 128.498 195.072 128.393C194.991 128.289 194.886 128.196 194.758 128.114C194.642 128.033 194.572 127.975 194.549 127.94L197.375 127.277V128.533ZM212.754 135.075C212.754 135.285 212.795 135.442 212.877 135.546C212.97 135.651 213.074 135.744 213.191 135.826C213.319 135.907 213.394 135.965 213.417 136H209.928C209.951 135.965 210.027 135.907 210.155 135.826C210.283 135.744 210.388 135.651 210.469 135.546C210.55 135.43 210.591 135.273 210.591 135.075V133.244C210.847 132.825 211.051 132.453 211.202 132.127L211.516 131.429C211.562 131.324 211.661 131.115 211.812 130.801C211.975 130.475 212.132 130.185 212.283 129.929C212.435 129.661 212.592 129.423 212.754 129.213V135.075ZM201.223 131.638C201.223 130.801 201.391 130.028 201.728 129.318C202.077 128.609 202.554 128.045 203.159 127.626C203.764 127.207 204.438 126.998 205.183 126.998C205.846 126.998 206.456 127.178 207.015 127.539C207.573 127.899 208.015 128.399 208.341 129.039C208.678 129.667 208.847 130.371 208.847 131.15H203.456C203.374 134.29 204.212 135.86 205.968 135.86C206.91 135.86 207.776 135.523 208.567 134.849C209.358 134.174 210.033 133.325 210.591 132.301V128.865C210.591 128.655 210.545 128.498 210.452 128.393C210.37 128.289 210.265 128.196 210.138 128.114C210.021 128.033 209.951 127.975 209.928 127.94L212.754 127.277V128.516C213.173 128.004 213.638 127.626 214.15 127.382C214.674 127.126 215.203 126.998 215.738 126.998C216.238 126.998 216.703 127.12 217.133 127.364C217.564 127.597 217.907 127.928 218.163 128.359C218.419 128.789 218.547 129.277 218.547 129.824V135.075C218.547 135.285 218.587 135.442 218.669 135.546C218.762 135.651 218.866 135.744 218.983 135.826C219.111 135.907 219.186 135.965 219.21 136H215.72C215.744 135.965 215.819 135.907 215.947 135.826C216.075 135.732 216.18 135.634 216.261 135.529C216.343 135.424 216.383 135.273 216.383 135.075V129.737C216.383 129.202 216.209 128.754 215.86 128.393C215.511 128.021 215.086 127.835 214.586 127.835C214.342 127.835 214.04 127.911 213.679 128.062C213.33 128.213 213.022 128.452 212.754 128.777C212.464 129.126 212.202 129.516 211.969 129.946C211.748 130.365 211.493 130.877 211.202 131.481L210.957 132.005C209.585 134.854 207.829 136.279 205.689 136.279C204.851 136.279 204.09 136.076 203.403 135.669C202.729 135.25 202.194 134.686 201.798 133.976C201.414 133.267 201.223 132.488 201.223 131.638ZM206.788 130.993C206.788 129.679 206.677 128.713 206.456 128.097C206.247 127.469 205.823 127.155 205.183 127.155C204.625 127.155 204.206 127.51 203.927 128.219C203.659 128.917 203.502 129.842 203.456 130.993H206.788ZM223.663 135.302C223.908 135.442 224.169 135.512 224.448 135.512C224.774 135.512 225.1 135.413 225.425 135.215C225.751 135.006 226.065 134.697 226.367 134.29V128.376C225.972 127.562 225.367 127.155 224.553 127.155C223.704 127.155 223.088 127.574 222.704 128.411C222.332 129.237 222.146 130.313 222.146 131.638C222.146 132.627 222.262 133.418 222.494 134.011C222.727 134.593 223.117 135.023 223.663 135.302ZM219.912 131.638C219.912 130.801 220.122 130.028 220.54 129.318C220.959 128.609 221.523 128.045 222.233 127.626C222.942 127.207 223.716 126.998 224.553 126.998C225.228 126.998 225.832 127.12 226.367 127.364V123.125C226.367 122.915 226.321 122.758 226.228 122.654C226.146 122.549 226.042 122.456 225.914 122.375C225.798 122.293 225.728 122.235 225.705 122.2L228.531 121.537V134.517C228.531 134.726 228.572 134.883 228.653 134.988C228.746 135.093 228.851 135.186 228.967 135.267C229.095 135.349 229.17 135.407 229.194 135.442L226.367 136.122L226.385 134.517C225.955 135.11 225.524 135.552 225.094 135.843C224.664 136.134 224.187 136.279 223.663 136.279C223.012 136.279 222.396 136.07 221.814 135.651C221.244 135.232 220.785 134.668 220.436 133.959C220.087 133.238 219.912 132.464 219.912 131.638ZM238.768 127.277C238.745 127.312 238.699 127.353 238.629 127.399C238.559 127.446 238.512 127.475 238.489 127.486C238.315 127.579 238.163 127.678 238.036 127.783C237.908 127.888 237.803 128.027 237.722 128.202L233.639 137.448C233.255 138.309 232.877 138.948 232.505 139.367C232.145 139.786 231.72 140.065 231.232 140.205C230.755 140.356 230.103 140.431 229.278 140.431L229.609 139.105C229.784 139.105 230.045 139.193 230.394 139.367C230.813 139.576 231.144 139.681 231.389 139.681C231.714 139.681 232.046 139.512 232.383 139.175C232.72 138.85 233.069 138.274 233.43 137.448L233.971 136.279L230.516 128.202C230.435 128.039 230.33 127.911 230.202 127.818C230.086 127.713 229.929 127.603 229.731 127.486C229.696 127.463 229.638 127.434 229.557 127.399C229.487 127.353 229.446 127.312 229.435 127.277H232.924C232.889 127.323 232.842 127.376 232.784 127.434C232.726 127.492 232.674 127.556 232.627 127.626C232.592 127.684 232.575 127.76 232.575 127.853C232.575 127.969 232.604 128.085 232.662 128.202L235.087 133.749L237.512 128.202C237.57 128.085 237.599 127.969 237.599 127.853C237.599 127.76 237.576 127.678 237.53 127.608C237.495 127.539 237.448 127.48 237.39 127.434C237.332 127.376 237.285 127.323 237.25 127.277H238.768ZM244.51 121.799V136.279H244.178V121.799H244.51ZM254.864 125.515L252.753 131.516H257.359L254.864 125.515ZM249.927 136C249.985 135.919 250.113 135.831 250.311 135.738C250.578 135.599 250.799 135.459 250.974 135.32C251.148 135.168 251.288 134.953 251.392 134.674L255.824 122.078H256.068L261.319 134.674C261.424 134.93 261.569 135.134 261.755 135.285C261.953 135.436 262.186 135.581 262.453 135.721C262.686 135.849 262.819 135.942 262.854 136H258.214C258.249 135.953 258.318 135.884 258.423 135.791C258.539 135.698 258.627 135.605 258.685 135.512C258.743 135.418 258.772 135.302 258.772 135.163C258.772 134.988 258.737 134.825 258.667 134.674L257.463 131.761H252.666L251.636 134.674C251.578 134.814 251.549 134.965 251.549 135.128C251.549 135.291 251.584 135.418 251.654 135.512C251.724 135.605 251.817 135.698 251.933 135.791C252.061 135.884 252.142 135.953 252.177 136H249.927ZM272.135 126.282C272.169 126.085 272.187 125.887 272.187 125.689C272.187 125.201 272.076 124.794 271.855 124.468C271.634 124.131 271.303 123.962 270.861 123.962C270.524 123.962 270.233 124.096 269.989 124.363C269.744 124.631 269.622 124.951 269.622 125.323C269.622 125.637 269.71 125.922 269.884 126.178C269.919 126.236 269.971 126.317 270.041 126.422C270.111 126.515 270.169 126.614 270.216 126.719C270.262 126.823 270.291 126.957 270.303 127.12V127.94H271.629V128.114H270.303V135.075C270.303 135.285 270.343 135.442 270.425 135.546C270.518 135.651 270.623 135.744 270.739 135.826C270.867 135.907 270.942 135.965 270.966 136H267.476C267.5 135.965 267.575 135.907 267.703 135.826C267.831 135.744 267.936 135.651 268.017 135.546C268.099 135.43 268.139 135.273 268.139 135.075V128.114H265.662V135.075C265.662 135.285 265.703 135.442 265.784 135.546C265.877 135.651 265.982 135.744 266.098 135.826C266.226 135.907 266.302 135.965 266.325 136H262.836C262.859 135.965 262.935 135.907 263.063 135.826C263.191 135.744 263.295 135.651 263.377 135.546C263.458 135.43 263.499 135.273 263.499 135.075V128.114H262.504V127.94H263.499V127.12C263.499 126.515 263.644 125.963 263.935 125.463C264.226 124.951 264.615 124.55 265.104 124.259C265.604 123.956 266.151 123.805 266.744 123.805C267.186 123.805 267.587 123.898 267.948 124.084C268.308 124.27 268.605 124.532 268.837 124.869C269.082 124.532 269.378 124.27 269.727 124.084C270.076 123.898 270.454 123.805 270.861 123.805C271.629 123.805 272.228 123.991 272.658 124.363C273.1 124.736 273.42 125.212 273.618 125.794L272.135 126.282ZM265.243 126.178C265.278 126.248 265.331 126.329 265.4 126.422C265.47 126.515 265.528 126.62 265.575 126.736C265.621 126.841 265.65 126.969 265.662 127.12V127.94H268.139V127.12C268.139 126.492 268.267 125.91 268.523 125.375C268.395 124.922 268.169 124.573 267.843 124.329C267.529 124.084 267.174 123.962 266.779 123.962C266.313 123.962 265.912 124.119 265.575 124.433C265.238 124.747 265.069 125.108 265.069 125.515C265.069 125.759 265.127 125.98 265.243 126.178ZM276.926 136.122C277.775 136.122 278.385 135.709 278.757 134.883C279.141 134.046 279.333 132.964 279.333 131.638C279.333 130.324 279.141 129.248 278.757 128.411C278.385 127.574 277.775 127.155 276.926 127.155C276.077 127.155 275.46 127.574 275.076 128.411C274.704 129.248 274.518 130.324 274.518 131.638C274.518 132.964 274.704 134.046 275.076 134.883C275.46 135.709 276.077 136.122 276.926 136.122ZM272.285 131.638C272.285 130.801 272.494 130.028 272.913 129.318C273.332 128.609 273.896 128.045 274.605 127.626C275.315 127.207 276.088 126.998 276.926 126.998C277.763 126.998 278.536 127.207 279.246 127.626C279.955 128.045 280.52 128.609 280.938 129.318C281.357 130.028 281.566 130.801 281.566 131.638C281.566 132.476 281.357 133.249 280.938 133.959C280.52 134.668 279.955 135.232 279.246 135.651C278.536 136.07 277.763 136.279 276.926 136.279C276.088 136.279 275.315 136.07 274.605 135.651C273.896 135.232 273.332 134.668 272.913 133.959C272.494 133.249 272.285 132.476 272.285 131.638ZM285.066 128.533C285.473 128.021 285.897 127.637 286.339 127.382C286.781 127.126 287.206 126.998 287.613 126.998C287.962 126.998 288.276 127.085 288.555 127.259C288.834 127.434 289.055 127.678 289.218 127.992L287.892 128.83C287.776 128.527 287.601 128.283 287.369 128.097C287.148 127.911 286.898 127.818 286.619 127.818C286.107 127.818 285.589 128.138 285.066 128.777V135.075C285.066 135.285 285.107 135.442 285.188 135.546C285.281 135.651 285.386 135.744 285.502 135.826C285.63 135.907 285.706 135.965 285.729 136H282.24C282.263 135.965 282.338 135.907 282.466 135.826C282.594 135.744 282.699 135.651 282.78 135.546C282.862 135.43 282.903 135.273 282.903 135.075V128.865C282.903 128.655 282.856 128.498 282.763 128.393C282.682 128.289 282.577 128.196 282.449 128.114C282.333 128.033 282.263 127.975 282.24 127.94L285.066 127.277V128.533ZM292.664 135.302C292.908 135.442 293.17 135.512 293.449 135.512C293.775 135.512 294.101 135.413 294.426 135.215C294.752 135.006 295.066 134.697 295.368 134.29V128.376C294.973 127.562 294.368 127.155 293.554 127.155C292.705 127.155 292.089 127.574 291.705 128.411C291.333 129.237 291.146 130.313 291.146 131.638C291.146 132.627 291.263 133.418 291.495 134.011C291.728 134.593 292.118 135.023 292.664 135.302ZM288.913 131.638C288.913 130.801 289.123 130.028 289.541 129.318C289.96 128.609 290.524 128.045 291.234 127.626C291.943 127.207 292.717 126.998 293.554 126.998C294.229 126.998 294.833 127.12 295.368 127.364V123.125C295.368 122.915 295.322 122.758 295.229 122.654C295.147 122.549 295.043 122.456 294.915 122.375C294.798 122.293 294.729 122.235 294.705 122.2L297.532 121.537V134.517C297.532 134.726 297.572 134.883 297.654 134.988C297.747 135.093 297.852 135.186 297.968 135.267C298.096 135.349 298.171 135.407 298.195 135.442L295.368 136.122L295.386 134.517C294.955 135.11 294.525 135.552 294.095 135.843C293.664 136.134 293.188 136.279 292.664 136.279C292.013 136.279 291.396 136.07 290.815 135.651C290.245 135.232 289.786 134.668 289.437 133.959C289.088 133.238 288.913 132.464 288.913 131.638ZM304.128 129.37C304.035 129.545 303.883 129.714 303.674 129.876C303.476 130.028 303.133 130.266 302.645 130.592C302.203 130.882 301.866 131.278 301.633 131.778C301.412 132.267 301.301 132.767 301.301 133.278C301.301 133.965 301.424 134.482 301.668 134.831C301.912 135.18 302.226 135.354 302.61 135.354C302.854 135.354 303.11 135.285 303.378 135.145C303.645 134.994 303.895 134.779 304.128 134.5V129.37ZM299.068 133.61C299.068 133.005 299.231 132.493 299.557 132.075C299.882 131.644 300.249 131.313 300.656 131.08C301.075 130.848 301.627 130.586 302.313 130.295C303 130.016 303.471 129.783 303.726 129.597C303.994 129.4 304.128 129.132 304.128 128.795V128.655C304.128 128.26 304.017 127.911 303.796 127.608C303.587 127.306 303.25 127.155 302.784 127.155C302.284 127.155 301.86 127.364 301.511 127.783C301.173 128.19 300.947 128.644 300.83 129.144L299.661 128.638C300.127 128.079 300.609 127.667 301.11 127.399C301.61 127.132 302.168 126.998 302.784 126.998C303.517 126.998 304.145 127.149 304.669 127.451C305.204 127.742 305.605 128.132 305.872 128.62C306.151 129.109 306.291 129.65 306.291 130.243V132.546C306.419 132.441 306.739 132.203 307.251 131.83C307.716 131.481 308.111 131.162 308.437 130.871V123.125C308.437 122.915 308.39 122.758 308.297 122.654C308.216 122.549 308.111 122.456 307.983 122.375C307.867 122.293 307.797 122.235 307.774 122.2L310.6 121.537V128.69C311.019 128.085 311.438 127.655 311.856 127.399C312.275 127.132 312.758 126.998 313.304 126.998C313.956 126.998 314.566 127.207 315.136 127.626C315.718 128.045 316.183 128.609 316.532 129.318C316.881 130.028 317.055 130.795 317.055 131.621C317.055 132.458 316.846 133.238 316.427 133.959C316.009 134.668 315.444 135.232 314.735 135.651C314.025 136.07 313.252 136.279 312.415 136.279C311.484 136.279 310.618 136.017 309.815 135.494L308.437 136.122V131.464C309.065 130.952 309.786 130.237 310.6 129.318V134.901C310.996 135.715 311.6 136.122 312.415 136.122C313.264 136.122 313.874 135.703 314.246 134.866C314.63 134.029 314.822 132.947 314.822 131.621C314.822 130.632 314.706 129.847 314.473 129.266C314.241 128.684 313.851 128.254 313.304 127.975C313.06 127.835 312.793 127.765 312.502 127.765C312.188 127.765 311.862 127.864 311.525 128.062C311.199 128.248 310.891 128.539 310.6 128.934C309.949 129.702 309.396 130.283 308.943 130.679C308.501 131.074 307.972 131.499 307.355 131.952C306.727 132.429 306.181 132.86 305.715 133.244C305.25 133.627 304.721 134.122 304.128 134.726C303.814 135.11 303.418 135.465 302.941 135.791C302.476 136.116 301.993 136.279 301.493 136.279C301.04 136.279 300.627 136.163 300.255 135.93C299.894 135.686 299.603 135.36 299.382 134.953C299.173 134.546 299.068 134.098 299.068 133.61ZM304.128 135.11L304.32 134.901C304.913 134.284 305.57 133.685 306.291 133.104V134.517C306.291 134.726 306.332 134.889 306.413 135.006C306.506 135.11 306.611 135.203 306.727 135.285C306.855 135.354 306.931 135.407 306.954 135.442L304.128 136.122V135.11ZM320.231 135.075C320.231 135.285 320.271 135.442 320.353 135.546C320.446 135.651 320.551 135.744 320.667 135.826C320.795 135.907 320.87 135.965 320.894 136H317.405C317.428 135.965 317.503 135.907 317.631 135.826C317.759 135.744 317.864 135.651 317.945 135.546C318.027 135.43 318.067 135.273 318.067 135.075V123.125C318.067 122.915 318.021 122.758 317.928 122.654C317.846 122.549 317.742 122.456 317.614 122.375C317.498 122.293 317.428 122.235 317.405 122.2L320.231 121.537V135.075ZM325.705 127.155C325.135 127.155 324.71 127.51 324.431 128.219C324.164 128.917 324.013 129.842 323.978 130.993H327.292C327.281 129.679 327.17 128.713 326.961 128.097C326.752 127.469 326.333 127.155 325.705 127.155ZM321.727 131.638C321.727 130.801 321.896 130.028 322.233 129.318C322.582 128.609 323.059 128.045 323.664 127.626C324.268 127.207 324.949 126.998 325.705 126.998C326.368 126.998 326.978 127.178 327.537 127.539C328.095 127.899 328.537 128.393 328.863 129.022C329.188 129.65 329.351 130.359 329.351 131.15H323.978L323.96 131.638C323.96 132.499 324.082 133.325 324.327 134.116C324.582 134.907 325.019 135.436 325.635 135.703C325.937 135.831 326.251 135.895 326.577 135.895C326.973 135.895 327.351 135.802 327.711 135.616C328.072 135.43 328.455 135.174 328.863 134.849C328.56 135.291 328.182 135.639 327.729 135.895C327.275 136.151 326.763 136.279 326.193 136.279C325.356 136.279 324.594 136.076 323.908 135.669C323.233 135.25 322.698 134.686 322.303 133.976C321.919 133.267 321.727 132.488 321.727 131.638Z" fill="#151515"/>
</svg>
